/* XPM */
static char *b5c35fd308be4ff5adfc3c9560dd697fXDo8XkoWZHxzWSBq[] = {
/* columns rows colors chars-per-pixel */
"64 64 126 2 ",
"   c #000000",
".  c #0B0B0B",
"X  c #141414",
"o  c #1B1B1B",
"O  c #201F1F",
"+  c #232323",
"@  c #2C2C2C",
"#  c #30302F",
"$  c #333333",
"%  c #3C3D3C",
"&  c #454544",
"*  c #4B4B4B",
"=  c #4F504F",
"-  c #4F4F50",
";  c #504F50",
":  c #535353",
">  c #575758",
",  c #5B5B5B",
"<  c #646464",
"1  c #676867",
"2  c #6B6B6B",
"3  c #727373",
"4  c #7C7C7C",
"5  c #807F7F",
"6  c #7F807F",
"7  c #848484",
"8  c #8C8C8C",
"9  c #8E8F90",
"0  c #949494",
"q  c #9B9B9B",
"w  c #A4A4A4",
"e  c #A7A8A7",
"r  c #AAABAB",
"t  c #B2B2B2",
"y  c #BCBCBC",
"u  c #C2C3C2",
"i  c #C3C3C3",
"p  c gray76",
"a  c #C0C0C0",
"s  c #C3C3C4",
"d  c gray77",
"f  c #C5C7C7",
"g  c #C6C6C6",
"h  c #C2C2C2",
"j  c #C8C8C8",
"k  c gray79",
"l  c #CACACA",
"z  c #CBCBCB",
"x  c #CBCCCB",
"c  c #CCCCCB",
"v  c gray80",
"b  c #CFCECE",
"n  c gray81",
"m  c #CBCBCB",
"M  c #CFCFD0",
"N  c gray82",
"B  c LightGray",
"V  c #D4D3D4",
"C  c gray83",
"Z  c #D4D5D5",
"A  c #D5D5D5",
"S  c gray84",
"D  c #D7D7D7",
"F  c #D2D2D2",
"G  c #D8D8D8",
"H  c gray85",
"J  c #D9D9DA",
"K  c #DADADA",
"L  c gainsboro",
"P  c #DDDCDC",
"I  c #DDDDDD",
"U  c #DBDBDB",
"Y  c gray88",
"T  c #E1E1E1",
"R  c #E2E2E2",
"E  c #E3E2E3",
"W  c gray89",
"Q  c #E3E4E4",
"!  c #E3E4E6",
"~  c #E4E4E4",
"^  c gray90",
"/  c #E5E5E6",
"(  c #E6E6E6",
")  c #E2E2E2",
"_  c #E7E7E8",
"`  c #E9E9E9",
"'  c #EAEAEA",
"]  c #EAEAEB",
"[  c gray92",
"{  c #ECECEC",
"}  c gray93",
"|  c #EEEEEE",
" . c #EFEFEF",
".. c #ECECEC",
"X. c #F0F0EF",
"o. c #ECEEF0",
"O. c gray94",
"+. c #F3F3F3",
"@. c #F4F4F4",
"#. c #F4F4F5",
"$. c gray96",
"%. c #F6F5F6",
"&. c #F6F6F6",
"*. c gray97",
"=. c #F3F3F3",
"-. c #F6F7F9",
";. c #F5F7FA",
":. c #F6F8FA",
">. c #F6F8FB",
",. c #F7F8FB",
"<. c #F6F8FB",
"1. c #F8F8F8",
"2. c #F9F9F9",
"3. c #F8F9FB",
"4. c #F9FAFA",
"5. c gray98",
"6. c #FAFBFA",
"7. c #FBFBFB",
"8. c #F8F9FC",
"9. c #FAFBFD",
"0. c #FBFCFD",
"q. c gray99",
"w. c #FDFDFD",
"e. c #FEFEFE",
"r. c white",
"t. c #FFFFFF",
/* pixels */
"r.r.r.r.r.r.r.r.r.r.r.r.r.r.r.r.r.r.r.r.r.r.r.r.r.r.r.r.r.r.r.r.r.r.r.r.r.r.r.r.r.r.r.r.r.r.r.r.r.r.r.r.r.r.r.r.r.r.r.r.r.r.r.r.",
"r.r.r.r.r.r.r.r.r.r.r.r.r.r.r.r.r.r.r.r.r.r.r.r.r.r.r.r.r.r.r.r.r.r.r.r.r.r.r.r.r.r.r.r.r.r.r.r.r.r.r.r.r.r.r.r.r.r.r.r.r.r.r.r.",
"r.r.r.r.r.r.r.r.r.r.r.r.r.r.r.r.r.r.r.r.r.r.r.r.r.r.r.r.r.r.r.r.r.r.r.r.r.r.r.r.r.r.r.r.r.r.r.r.r.r.r.r.r.r.r.r.r.r.r.r.r.r.r.r.",
"r.r.r.r.r.r.r.r.r.r.r.r.r.r.r.r.r.r.r.r.r.r.r.r.r.r.r.r.r.r.r.r.r.r.r.r.r.r.r.r.r.r.r.r.r.r.r.r.r.r.r.r.r.r.r.r.r.r.r.r.r.r.r.r.",
"r.r.r.r.r.r.r.r.r.r.r.r.r.r.r.r.r.r.r.r.r.r.r.r.r.r.r.r.r.r.r.r.r.r.r.r.r.r.r.r.r.r.r.r.r.r.r.r.r.r.r.r.r.r.r.r.r.r.r.r.r.r.r.r.",
"r.r.r.r.r.r.r.r.r.r.r.r.r.r.r.r.r.r.r.r.r.r.r.r.r.r.r.r.r.r.r.r.r.r.r.r.r.r.r.r.r.r.r.r.r.r.r.r.r.r.r.r.r.r.r.r.r.r.r.r.r.r.r.r.",
"r.r.r.r.r.r.r.r.r.r.r.r.r.r.r.r.r.r.r.r.r.r.r.r.r.r.r.r.r.r.r.r.r.r.r.r.r.r.r.r.r.r.r.r.r.r.r.r.r.r.r.r.r.r.r.r.r.r.r.r.r.r.r.r.",
"r.r.r.r.r.r.r.r.r.r.r.r.r.r.r.r.r.r.r.r.r.r.r.r.r.r.r.r.r.r.r.r.r.r.r.r.r.r.r.r.r.r.r.r.r.r.r.r.r.r.r.r.r.r.r.r.r.r.r.r.r.r.r.r.",
"r.r.r.r.r.r.r.r.r.r.r.r.r.r.r.r.r.r.r.r.r.r.r.r.r.r.r.r.r.r.r.r.r.r.r.r.r.r.r.r.r.r.r.r.r.r.r.r.r.r.r.r.r.r.r.r.r.r.r.r.r.r.r.r.",
"r.r.r.r.r.r.r.r.^ 3 * 3 *.r. .j C *.r.r.r.r.r.r.r.r.r.r.r.r.r.r.r.r.r.r.r.r.r.r.r.r.r.r.r.r.r.r.r.r.r.r.r.r.r.r.r.r.r.r.r.r.r.r.",
"r.r.r.r.r.r.r.M       8 n >       X 7 *.r.r.r.r.r.r.r.r.r.r.r.:.:.;.:.>.:.;.r.r.r.r.r.r.r.r.r.r.r.r.r.r.r.r.r.r.r.r.r.r.r.r.r.r.",
"r.r.r.r.r.r.5.o   o b y     4 0 X     o y C c j b B +.r.r.r.:.r.r.*.r.r.r.r.;.r.r.r.r.r.r.r.r.r.r.r.r.r.r.r.r.r.r.r.r.r.r.r.r.r.",
"r.r.r.r.r.r.E   4 E 0     y  .E ^ X                 . > 7 7 7 , O o $ 0 +.r.;.r.r.r.r.r.r.r.r.r.r.r.r.r.r.r.r.r.r.r.r.r.r.r.r.r.",
"r.r.r.r.r.r.+.B n *     o *.o   *.1                                     X B r.5.r.r.r.r.r.r.r.r.r.r.r.r.r.r.r.r.r.r.r.r.r.r.r.r.",
"r.r.r.r.r.r. .4         . L t w +.@               1 $                       & $ & 7 L r.r.r.r.r.r.r.r.r.r.r.r.r.r.r.r.r.r.r.r.r.",
"r.r.r.r.5.0               o y C :               o r.t           % e *                 1 5.r.r.r.r.r.r.r.r.r.r.r.r.r.r.r.r.r.r.r.",
"r.r.r.j o                                         * +           E r.5.o                 $ 5.r.r.r.r.r.r.r.r.r.r.r.r.r.r.r.r.r.r.",
"r.r.Q                                                           M r.r.@         o .       > r.r.r.r.r.r.r.r.r.r.r.r.r.r.r.r.r.r.",
"r.r.8                                                           o e 3         $ r.p         t ^  .r.r.r.r.r.r.r.r.r.r.r.r.r.r.r.",
"r.r.1                                                                         + E q             . > ^ r.r.r.r.r.r.r.r.r.r.r.r.r.",
"r.r.;                                                   < &                                         . K r.r.r.r.r.r.r.r.r.r.r.r.",
"r.r.=                                                 + r.5.X                                         + r.r.r.r.r.r.r.r.r.r.r.r.",
"r.r.e @ 3 0 3 % X                                     . y j                                             b r.r.r.r.r.r.r.r.r.r.r.",
"r.r.5.5.r.r.r.r.*.' r &                                                         : q                     4 r.r.r.r.r.r.r.r.r.r.r.",
"r.r.r.r.r. .t y b +.r.r.' 4                                       o K ' $       t 5.X                     1 C r.r.r.r.r.r.r.r.r.",
"r.r.r.r.r.*.e +     @ q  .r.' p q 4 X                             > ;.r.q       . +           . * X           % t *.r.r.r.r.r.r.",
"r.r.r.r.r.r.r.r.B >       $ 2 4 > o                               X p K @                     1 r.b               o e r.r.r.r.r.",
"r.r.r.r.r.r.r.r.r.r.' 7 .                                                                     $ _ e                   * 5.r.r.r.",
"r.r.r.r.r.r.r.r.r.r.r.r.' @                                                                                             > r.r.r.",
"r.r.r.r.r.r.r.r.r.r.r.r.r.+.%                                                                                             B r.r.",
"r.r.r.r.r.r.r.r.r.r.r.r.r.r.5.>                                                                                           1 r.r.",
"r.r.r.r.r.r.r.r.r.r.r.r.r.r.r.r.1                                                                                         @ r.r.",
"r.r.r.r.r.r.r.r.r.r.r.r.r.r.5.5.r.2                                                                                       + r.r.",
"r.r.r.r.r.r.r.r.r.r.r.r.r.r. .# ' r.1                                                                                     % r.r.",
"r.r.r.r.r.r.r.r.r.r.r.r.r.r. .  . ' r.*                                                     o                             0 r.r.",
"r.r.r.r.r.r.r.r.r.r.r.r.r.r.^     o *.*.@                                                 . &                             ' r.r.",
"r.r.r.r.r.r.r.r.r.r.r.r.r.r.j       3 9.Q .               $                               . 7                           > r.r.r.",
"r.r.r.r.r.r.r.r.r.r.r.r.r.r.1       X q.r.p               $ @                               e X                         j r.r.r.",
"r.r.r.r.r.r.r.r.r.r.r.r.r.y         y r.r.r.4             . 2                               q 3                         p r.r.r.",
"r.r.r.r.r.r.r.r.r.r.r.+.q         * r.r.r.r.0.@             r %                             * C                           $ r.r.",
"r.r.r.r.r.r.r.r.+.g 1 .           ^ r.r.r.9.r.K             q y                               Z t                         . r.r.",
"r.r.r.r.r.r.^ >                 7 r.r.r.r.;.r.r.7           < 5.o                             $ 5.r                       . r.r.",
"r.r.r.r.r.p .                 X *.r.r.r.r.9.r.r.;..         * r.q                               1 r.E , .                 . r.r.",
"r.r.5.0 $                     r r.r.r.r.r.r.r.r.C           : r.*.X                               > *.r.*.C y E 7         X r.r.",
"K 0 $                       : r.r.r.r.r.;.r.r.*.+           < :.;.} f 9 > + .                       . w 5.r.r.7.@         * r.r.",
":             o 7 0 +       y r.r.r.r.r.5.r.Y @             , r.r.r.r.r.r.9.[ E j r e 0 8 8 8 0 e r g P o.r.r.e           j r.r.",
"*.y     $ 2 b 5.r.r.r.t $   o r.r.r.r.+.g >                 @ 5.r.r.r.r.r.r.r.r.r.r.r.r.r.r.r.r.r.r.r.r.r.r. .o         : r.r.r.",
"r.5.y +.5.r.r.r.r.r.r.r.r.y & B p 8 * .                     2 q.r.r.r.r.r.r.r.r.r.r.r.r.r.r.;.r.r.r.r.+.y 1 .           _ r.r.r.",
"r.r.r.r.r.r.r.r.r.r.r.r.5.7 * $                       + 4 m r.r.r.r.r.r.r.r.r.r.r.r.r.r.r.r.;.r.r.r.D .               8 r.r.r.r.",
"r.r.r.r.r.r.r.r.r.r.r.r.5.w B 8 .                 1 L 5.r.r.r.r.r.r.r.r.r.r.r.r.r.r.r.r.r.r.r.r.r.q.$               + 5.r.r.r.r.",
"r.r.r.r.r.r.r.r.r.r.r.r.r.' *                 . j r.r.r.r.9.0.r.q.r.r.q.r.9.r.q.r.9.r.0.r.;.r.r.r.r                 b r.r.r.r.r.",
"r.r.r.r.r.r.r.r.r.r.r.r.t   X %       1 @   + E r.r.r.r.r.r.r.r.r.r.r.r.r.r.r.r.r.r.r.r.r.r.r.r.E * t             , r.r.r.r.r.r.",
"r.r.r.r.r.r.r.r.r.r.r.r.y , +.$   9 K 5 o 8 ;.r.r.r.r.r.r.r.r.r.r.r.r.r.r.r.r.r.r.r.r.r.r.r.r.r.2 L j     8 w   .  .r.r.r.r.r.r.",
"r.r.r.r.r.r.r.r.r.r.r.r.r.r.r.e z r.7.1 E r.r.r.r.r.r.r.r.r.r.r.r.r.r.r.r.r.r.r.r.r.r.r.r.r.r.r.r. .X . t r.j   q r.r.r.r.r.r.r.",
"r.r.r.r.r.r.r.r.r.r.r.r.r.r.r.r.r.r.r.r.r.r.r.r.r.r.r.r.r.r.r.r.r.r.r.r.r.r.r.r.r.r.r.r.r.r.r.r.r. .$ j r.r.y + *.r.r.r.r.r.r.r.",
"r.r.r.r.r.r.r.r.r.r.r.r.r.r.r.r.r.r.r.r.r.r.r.r.r.r.r.r.r.r.r.r.r.r.r.r.r.r.r.r.r.r.r.r.r.r.r.r.r.r.r.r.r.r.r.r.r.r.r.r.r.r.r.r.",
"r.r.r.r.r.r.r.r.r.r.r.r.r.r.r.r.r.r.r.r.r.r.r.r.r.r.r.r.r.r.r.r.r.r.r.r.r.r.r.r.r.r.r.r.r.r.r.r.r.r.r.r.r.r.r.r.r.r.r.r.r.r.r.r.",
"r.r.r.r.r.r.r.r.r.r.r.r.r.r.r.r.r.r.r.r.r.r.r.r.r.r.r.r.r.r.r.r.r.r.r.r.r.r.r.r.r.r.r.r.r.r.r.r.r.r.r.r.r.r.r.r.r.r.r.r.r.r.r.r.",
"r.r.r.r.r.r.r.r.r.r.r.r.r.r.r.r.r.r.r.r.r.r.r.r.r.r.r.r.r.r.r.r.r.r.r.r.r.r.r.r.r.r.r.r.r.r.r.r.r.r.r.r.r.r.r.r.r.r.r.r.r.r.r.r.",
"r.r.r.r.r.r.r.r.r.r.r.r.r.r.r.r.r.r.r.r.r.r.r.r.r.r.r.r.r.r.r.r.r.r.r.r.r.r.r.r.r.r.r.r.r.r.r.r.r.r.r.r.r.r.r.r.r.r.r.r.r.r.r.r.",
"r.r.r.r.r.r.r.r.r.r.r.r.r.r.r.r.r.r.r.r.r.r.r.r.r.r.r.r.r.r.r.r.r.r.r.r.r.r.r.r.r.r.r.r.r.r.r.r.r.r.r.r.r.r.r.r.r.r.r.r.r.r.r.r.",
"r.r.r.r.r.r.r.r.r.r.r.r.r.r.r.r.r.r.r.r.r.r.r.r.r.r.r.r.r.r.r.r.r.r.r.r.r.r.r.r.r.r.r.r.r.r.r.r.r.r.r.r.r.r.r.r.r.r.r.r.r.r.r.r.",
"r.r.r.r.r.r.r.r.r.r.r.r.r.r.r.r.r.r.r.r.r.r.r.r.r.r.r.r.r.r.r.r.r.r.r.r.r.r.r.r.r.r.r.r.r.r.r.r.r.r.r.r.r.r.r.r.r.r.r.r.r.r.r.r.",
"r.r.r.r.r.r.r.r.r.r.r.r.r.r.r.r.r.r.r.r.r.r.r.r.r.r.r.r.r.r.r.r.r.r.r.r.r.r.r.r.r.r.r.r.r.r.r.r.r.r.r.r.r.r.r.r.r.r.r.r.r.r.r.r."
};
