/* XPM */
static char *_086e185b7564c62d15b85c9ec192deaL6bZth038VbNLcyE[] = {
/* columns rows colors chars-per-pixel */
"16 16 87 1 ",
"  c black",
". c #010101",
"X c #040403",
"o c gray2",
"O c #060606",
"+ c #070706",
"@ c #070807",
"# c gray3",
"$ c #090908",
"% c #090A0A",
"& c gray4",
"* c gray5",
"= c #0D0E0D",
"- c #0E0E0E",
"; c gray6",
": c #101010",
"> c #111111",
", c gray7",
"< c #171818",
"1 c #181818",
"2 c #1B1A1B",
"3 c gray11",
"4 c gray13",
"5 c #232222",
"6 c gray15",
"7 c #262627",
"8 c #272727",
"9 c #282828",
"0 c gray16",
"q c #2A2A2A",
"w c #2D2D2D",
"e c gray18",
"r c #2F2F2F",
"t c #353435",
"y c #393939",
"u c gray23",
"i c #3C3C3C",
"p c #3E3E3E",
"a c #3F3F3F",
"s c #484848",
"d c gray29",
"f c #4E4E4E",
"g c #606060",
"h c #626262",
"j c #676767",
"k c #6F6F6F",
"l c #747474",
"z c gray48",
"x c #7E7E7E",
"c c #818181",
"v c #848484",
"b c gray52",
"n c #929292",
"m c #939393",
"M c #959595",
"N c #9C9C9D",
"B c #9F9F9F",
"V c #A5A5A5",
"C c #ABACAB",
"Z c gray68",
"A c #ADADAE",
"S c gray69",
"D c #B4B4B4",
"F c gray72",
"G c #B9B9B9",
"H c gray74",
"J c #C1C1C1",
"K c #CACACA",
"L c gray82",
"P c #D2D2D2",
"I c gray88",
"U c #E1E1E1",
"Y c #E4E4E4",
"T c #E9E9E9",
"R c gray92",
"E c #EEEEEE",
"W c #F0F0EF",
"Q c #F1F1F1",
"! c gray95",
"~ c #F3F3F3",
"^ c #F4F4F4",
"/ c #F6F6F6",
"( c #F8F8F8",
") c gray98",
"_ c gray99",
"` c #FEFEFE",
"' c white",
/* pixels */
"''''''''''''''''",
"''''''''''''''''",
"''WYT'''''''''''",
"''NglcNCVW''''''",
"'Je<e %@u6l~''''",
"'f    +51;%9H'''",
"'Ins1 X:t5;:rZ)'",
"''~Z6   :+ 3+ v'",
"''''v;        f'",
"'''FaN%;  +6  x'",
"/Fs M'iei% eg6u'",
"RzMzmj;g~KFDF9c'",
"'''Pe9S/'''E99/'",
"''')~/'''''~PI''",
"''''''''''''''''",
"''''''''''''''''"
};
