/* XPM */
static char *_c2574bf4a504a21c22b7a6520e0d5c58AnYd1DfAIj2fxZ7[] = {
/* columns rows colors chars-per-pixel */
"32 32 187 2 ",
"   c black",
".  c #010100",
"X  c #010001",
"o  c #010101",
"O  c #020202",
"+  c gray1",
"@  c #040404",
"#  c #070606",
"$  c #070707",
"%  c gray3",
"&  c #090909",
"*  c #09090A",
"=  c gray4",
"-  c #0B0B0A",
";  c #0B0B0B",
":  c #0C0C0C",
">  c gray5",
",  c #0E0E0E",
"<  c gray6",
"1  c #101010",
"2  c #111111",
"3  c #111212",
"4  c gray7",
"5  c gray8",
"6  c #151515",
"7  c #161516",
"8  c gray9",
"9  c #181818",
"0  c #181919",
"q  c #191919",
"w  c gray10",
"e  c gray11",
"r  c #1D1D1D",
"t  c #1E1E1E",
"y  c #222222",
"u  c #242423",
"i  c gray14",
"p  c gray15",
"a  c #272727",
"s  c #282828",
"d  c #292829",
"f  c #2A2A2A",
"g  c #2C2B2B",
"h  c #2D2D2D",
"j  c #2F2F2F",
"k  c #313131",
"l  c #323232",
"z  c gray20",
"x  c #343334",
"c  c #353535",
"v  c gray21",
"b  c #373737",
"n  c #3A3A3A",
"m  c gray23",
"M  c #3C3C3C",
"N  c gray24",
"B  c #3D3D3E",
"V  c #3F3F3F",
"C  c #3F403F",
"Z  c gray25",
"A  c #414041",
"S  c #414141",
"D  c #434343",
"F  c #444444",
"G  c gray27",
"H  c gray29",
"J  c #4C4C4C",
"K  c #4E4E4E",
"L  c #4F5050",
"P  c #505050",
"I  c #515151",
"U  c #535353",
"Y  c gray33",
"T  c #555555",
"R  c #565656",
"E  c #585858",
"W  c #585958",
"Q  c gray35",
"!  c #5A5A5A",
"~  c #5C5D5D",
"^  c gray37",
"/  c #5F5E5E",
"(  c #5F5F5F",
")  c #606060",
"_  c gray38",
"`  c #626262",
"'  c gray39",
"]  c #646464",
"[  c #676767",
"{  c DimGray",
"}  c gray42",
"|  c #6F6F6F",
" . c #717272",
".. c gray45",
"X. c gray46",
"o. c gray48",
"O. c #7B7B7B",
"+. c #7C7C7C",
"@. c gray49",
"#. c #7E7E7E",
"$. c gray50",
"%. c #818181",
"&. c gray52",
"*. c gray55",
"=. c #8D8C8D",
"-. c #8D8D8D",
";. c #8E8E8E",
":. c gray56",
">. c gray57",
",. c #929292",
"<. c #939393",
"1. c #979797",
"2. c #989898",
"3. c #999A99",
"4. c #9A9A9A",
"5. c #9B9B9B",
"6. c #9D9D9D",
"7. c gray62",
"8. c #9FA09F",
"9. c #A0A0A0",
"0. c gray63",
"q. c #A2A2A1",
"w. c gray64",
"e. c #A4A4A4",
"r. c #A5A4A4",
"t. c #A5A5A5",
"y. c gray65",
"u. c gray66",
"i. c #A9A9A9",
"p. c #AAAAAA",
"a. c gray68",
"s. c #B1B1B1",
"d. c #B2B3B3",
"f. c gray70",
"g. c #B4B4B4",
"h. c gray71",
"j. c #B6B6B6",
"k. c #B7B7B7",
"l. c #B9B8B8",
"z. c #B9B9B9",
"x. c gray",
"c. c gray75",
"v. c #C0C0C0",
"b. c #C1C1C1",
"n. c #C1C1C2",
"m. c #C3C3C3",
"M. c #C6C6C6",
"N. c #C8C8C8",
"B. c gray82",
"V. c LightGray",
"C. c gray84",
"Z. c #D8D8D8",
"A. c gray85",
"S. c #DBDCDB",
"D. c gainsboro",
"F. c gray87",
"G. c #DFDFDF",
"H. c #E0DFDF",
"J. c gray88",
"K. c #E4E4E4",
"L. c gray90",
"P. c #E6E6E6",
"I. c #E7E7E7",
"U. c gray91",
"Y. c #EAEAEA",
"T. c gray92",
"R. c gray93",
"E. c #EEEEEE",
"W. c #EFF0EF",
"Q. c gray94",
"!. c #F1F1F1",
"~. c gray95",
"^. c #F3F3F3",
"/. c gray96",
"(. c #F6F6F5",
"). c #F8F8F8",
"_. c #F9F9F9",
"`. c #FBFBFB",
"'. c gray99",
"]. c #FCFDFD",
"[. c #FDFDFD",
"{. c #FEFEFE",
"}. c #FEFFFE",
"|. c #FFFFFE",
" X c #FFFEFF",
".X c #FEFFFF",
"XX c white",
/* pixels */
"XXXXXXXXXXXXXXXXXXXXXXXXXXXXXXXXXXXXXXXXXXXXXXXXXXXXXXXXXXXXXXXX",
"XXXXXXXXXXXXXXXXXXXXXXXXXXXXXXXXXXXXXXXXXXXXXXXXXXXXXXXXXXXXXXXX",
"XXXXXXXXXXXXXXXXXXXXXXXXXXXXXXXXXXXXXXXXXXXXXXXXXXXXXXXXXXXXXXXX",
"XXXXXXXXXXXXXXXXXXXXXXXXXXXXXXXXXXXXXXXXXXXXXXXXXXXXXXXXXXXXXXXX",
"XXXXXXXXXXXXXXXXXXXXXXXXXXXXXXXXXXXXXXXXXXXXXXXXXXXXXXXXXXXXXXXX",
"XXXXXXXXH.H ..d.{ *.E.XXXXXXXXXXXXXXXXXXXXXXXXXXXXXXXXXXXXXXXXXX",
"XXXXXXXX{ m P j ^ 4 d ....O.f.v.a.7.V.XXXXXXXXXXXXXXXXXXXXXXXXXX",
"XXXXXXXX=.V   X.4.W       7         $ $.w.m.XXXXXXXXXXXXXXXXXXXX",
"XXXXF.W       t R :     + ^ ;   x i.4       ` XXXXXXXXXXXXXXXXXX",
"XXXXA                           k v.t   L v   &.K.XXXXXXXXXXXXXX",
"XX^.4                 +     9 u         C g     : ! Q.XXXXXXXXXX",
"XX(.G A V e                 J %.                    :.XXXX'.XXXX",
"XXXX`.E.i.y.4.P 5 =               A [   v P         d h.XXXXXXXX",
"XXXXXXE.w.G M [ W p               | y.  = 4     %.b     v q.XXXX",
"XXXXXXXXXXXXv.j                                 V t         O.XX",
"`.XX`.XXXXXXXXQ.P                                           O A.",
"XXXXXXXX`.XXXXXXU.^                                           v.",
"XX`.XX`.XXXXXXXXE w.U                         4             $ F.",
"`.XXXXXXXXXXXXXXt = V.k       7               A =           ^ XX",
"XXXXXX`.XXXXXX<.  : E.V.-     p 4             C y           | Q.",
"`.XXXXXXA.4.J     4.XXXX=.O   k ^             8 $.:           h.",
"XXXXE.>.:       m `.XXXXXXp   t h.              V w.W k p     h.",
"XX$.9     <     N.XXXXXX9.=   9 Q.l.O.A d 9 4 4 : U F.XXW     V.",
"'.7.k ` c.L.4.j d.A.i.L       = U.XXXXXX_.Q.U.U.E.^.F.y.+   ^ XX",
"XXXXXXXXXXXXXXw.V $       t ^ l._.XX_.XXXXXXXXXXXXd.7     9 L.XX",
"XXXXXXXX`.XX_.$.7   $   P L.XXXXXXXXXXXXXXXX_.XXL.D       =.XXXX",
"XXXXXXXXXXXXQ.4.] $.` >.XXXXXXXXXXXXXXXXXXXXXXXXC.` a ) d (.XXXX",
"`.XX`.XXXXXXXXXX_.XX(.XXXXXXXXXXXXXXXXXX_.XXXXXXXXg.K.V.c.XXXXXX",
"XXXXXXXXXXXXXX_.XXXXXXXXXX_.XXXX_.XXXXXXXX_.XXXXXXXXXXXXXXXXXXXX",
"XXXXXXXXXXXXXXXXXXXXXXXXXXXXXXXXXXXXXXXXXXXXXXXXXXXXXXXXXXXXXXXX",
"XXXXXXXXXXXXXXXXXXXXXXXXXXXXXXXXXXXXXXXXXXXXXXXXXXXXXXXXXXXXXXXX",
"XXXXXXXXXXXXXXXXXXXXXXXXXXXXXXXXXXXXXXXXXXXXXXXXXXXXXXXXXXXXXXXX"
};
